<svg width="236" height="42" fill="none" xmlns="http://www.w3.org/2000/svg"><path d="M67.416 23.513h8.416c-.867 3.384-4.078 5.987-7.895 5.987-4.599 0-8.416-3.73-8.416-8.416a8.37 8.37 0 018.416-8.416c2.343 0 4.512.954 6.073 2.603l2.43-2.43a11.672 11.672 0 00-8.416-3.557c-6.508 0-11.8 5.292-11.8 11.8 0 6.507 5.292 11.8 11.8 11.8 6.334 0 11.54-4.946 11.54-11.106v-1.735H67.415v3.47zm71.841 8.85h-14.836V10.412h3.383v18.567h11.453v3.384zm64.64 0h-3.557l-11.8-16.485v16.485h-3.384V10.412h3.557l11.8 16.485V10.412h3.384v21.951zm25.162-21.951h-3.384v21.951h3.384V10.412z" fill="#000"/><path d="M236 10.412h-17.353v3.384H236v-3.384zM108.109 32.363l-7.462-17.613-7.548 17.613h-3.644l9.457-21.951h3.557l9.284 21.951h-3.644z" fill="#000"/><path d="M107.588 23.774H93.706v3.383h13.882v-3.383zm59.868 8.589l-7.462-17.613-7.548 17.613h-3.644l9.457-21.951h3.557l9.284 21.951h-3.644z" fill="#000"/><path d="M166.935 23.774h-13.882v3.383h13.882v-3.383z" fill="#000"/><path d="M18.22 8.33V0L0 12.494v8.416L18.22 8.33z" fill="url(#paint0_linear_601_215)"/><path d="M30.454 16.745l-11.8 8.07v-8.33l11.8-8.069 6.074 4.165v8.33l-6.074-4.166zm6.074 4.165L18.22 33.404 0 20.91v8.33l18.22 12.494L36.442 29.24v-8.33h.087z" fill="#164194"/><defs><linearGradient id="paint0_linear_601_215" x1="0" y1="10.466" x2="18.206" y2="10.466" gradientUnits="userSpaceOnUse"><stop stop-color="#C7AA83"/><stop offset=".221" stop-color="#F7DDA3"/><stop offset=".762" stop-color="#B39A77"/><stop offset=".982" stop-color="#8E7143"/></linearGradient></defs></svg>